<?xml version="1.0" encoding="UTF-8" standalone="no"?>
<!-- Created with Inkscape (http://www.inkscape.org/) -->

<svg
   xmlns:dc="http://purl.org/dc/elements/1.1/"
   xmlns:cc="http://creativecommons.org/ns#"
   xmlns:rdf="http://www.w3.org/1999/02/22-rdf-syntax-ns#"
   xmlns:svg="http://www.w3.org/2000/svg"
   xmlns="http://www.w3.org/2000/svg"
   xmlns:sodipodi="http://sodipodi.sourceforge.net/DTD/sodipodi-0.dtd"
   xmlns:inkscape="http://www.inkscape.org/namespaces/inkscape"
   width="630"
   height="630"
   id="svg2"
   version="1.1"
   inkscape:version="0.48.2 r9819"
   sodipodi:docname="nypm-logo-dg-1-color.svg"
   inkscape:export-filename="/home/david/Pictures/perl/NY.pm logo/nypm-logo-dg-1-color-180.png"
   inkscape:export-xdpi="25.709999"
   inkscape:export-ydpi="25.709999">
  <defs
     id="defs4" />
  <sodipodi:namedview
     id="base"
     pagecolor="#ffffff"
     bordercolor="#666666"
     borderopacity="1.0"
     inkscape:pageopacity="0.0"
     inkscape:pageshadow="2"
     inkscape:zoom="1.4142136"
     inkscape:cx="379.88322"
     inkscape:cy="424.89755"
     inkscape:document-units="px"
     inkscape:current-layer="layer1"
     showgrid="false"
     inkscape:window-width="1276"
     inkscape:window-height="1002"
     inkscape:window-x="0"
     inkscape:window-y="18"
     inkscape:window-maximized="0"
     units="in" />
  <metadata
     id="metadata7">
    <rdf:RDF>
      <cc:Work
         rdf:about="">
        <dc:format>image/svg+xml</dc:format>
        <dc:type
           rdf:resource="http://purl.org/dc/dcmitype/StillImage" />
        <dc:title></dc:title>
      </cc:Work>
    </rdf:RDF>
  </metadata>
  <g
     inkscape:label="Layer 1"
     inkscape:groupmode="layer"
     id="layer1"
     transform="translate(0,-422.36216)">
    <rect
       style="fill:#ff6600;fill-opacity:1;stroke:#999999;stroke-width:1.79999995;stroke-linecap:butt;stroke-linejoin:miter;stroke-miterlimit:4;stroke-opacity:1;stroke-dasharray:none;stroke-dashoffset:0"
       id="rect3165"
       width="604"
       height="604"
       x="12"
       y="435.36215"
       rx="18"
       ry="18.000002" />
    <rect
       ry="18.000002"
       rx="18"
       y="435.36215"
       x="12"
       height="520"
       width="604"
       id="rect3185"
       style="fill:#008bff;fill-opacity:1;stroke:#999999;stroke-width:1.79999995;stroke-linecap:butt;stroke-linejoin:miter;stroke-miterlimit:4;stroke-opacity:1;stroke-dasharray:none;stroke-dashoffset:0" />
    <polygon
       id="polygon334"
       points="1086.415,1410.042 1094.631,1411.252 1094.631,1390.872 1118.45,1390.872 1118.45,1398.846 1121.242,1398.846 1120.062,1377.256 1126.721,1375.969 1126.721,1367.697 1156.796,1367.697 1156.796,1376.181 1161.521,1376.181 1161.521,1403.679 1169.9,1403.679 1168.613,1424.733 1173.336,1423.549 1173.336,1394.656 1174.733,1393.477 1175.808,1386.491 1176.99,1386.491 1177.956,1381.661 1186.118,1381.661 1189.771,1392.616 1203.626,1392.616 1203.626,1404.645 1209.104,1404.645 1209.104,1398.04 1224.41,1398.04 1224.41,1389.983 1233.81,1389.983 1233.81,1386.814 1244.768,1386.814 1244.768,1389.82 1250.351,1389.82 1250.351,1393.262 1282.574,1393.262 1282.574,1419.145 1287.085,1419.145 1287.085,1406.257 1294.981,1406.257 1294.981,1397.556 1298.526,1398.523 1298.526,1389.983 1313.993,1389.983 1313.993,1378.867 1335.583,1378.867 1335.583,1391.757 1338.161,1391.757 1338.161,1421.726 1350.568,1421.726 1350.568,1426.396 1366.517,1426.396 1366.517,1391.596 1370.544,1391.596 1370.544,1381.928 1375.862,1380.316 1375.862,1374.355 1382.307,1374.355 1382.307,1380.64 1388.43,1380.64 1388.43,1390.951 1392.134,1390.951 1392.134,1403.839 1403.411,1403.839 1403.411,1434.186 1411.9,1434.186 1411.9,1429.242 1422.641,1429.242 1425.11,1431.713 1432.308,1433.109 1432.308,1426.021 1452.392,1426.021 1452.392,1322.477 1456.503,1320.14 1456.503,1307.41 1463.834,1291.863 1463.834,1275.107 1465.763,1244.014 1468.666,1275.107 1469.632,1291.863 1477.043,1307.41 1477.043,1317.321 1480.666,1320.945 1484.616,1423.497 1499.118,1423.497 1499.118,1428.17 1517.483,1428.17 1517.483,1479.76 869.146,1479.76 869.146,1387.998 895.677,1387.998 895.677,1416.137 906.632,1422.585 906.632,1387.352 919.309,1381.552 919.309,1371.454 925.54,1370.168 925.54,1363.938 934.346,1363.938 934.346,1369.951 939.718,1368.662 939.718,1391.862 947.879,1389.715 947.879,1360.716 971.94,1360.716 971.94,1390.574 977.096,1392.939 977.956,1388.856 987.838,1388.856 987.838,1342.024 1031.231,1342.024 1031.231,1386.278 1047.827,1386.278 1047.827,1409.801 1052.499,1411.252 1053.948,1369.685 1056.044,1369.685 1056.044,1363.077 1063.132,1363.077 1065.387,1373.713 1084.642,1373.713 "
       transform="matrix(0.9294309,0,0,0.92787602,-794.97965,-409.80159)"
       style="fill:#4d4d4d;stroke:none" />
    <text
       xml:space="preserve"
       style="font-size:126.53767394999999851px;font-style:normal;font-weight:normal;line-height:125%;letter-spacing:0px;word-spacing:0px;fill:#ff6600;fill-opacity:1;stroke:#000000;font-family:Sans;stroke-width:2;stroke-miterlimit:4;stroke-dasharray:none"
       x="256.88464"
       y="539.93854"
       id="text3142"
       sodipodi:linespacing="125%"><tspan
         sodipodi:role="line"
         id="tspan3144"
         x="256.88464"
         y="539.93854"
         style="font-size:126.53767394999999851px;font-style:normal;font-variant:normal;font-weight:bold;font-stretch:normal;text-align:start;line-height:125%;writing-mode:lr-tb;text-anchor:start;fill:#ff6600;font-family:Mekanus ADF Std;-inkscape-font-specification:Mekanus ADF Std;stroke:#000000;stroke-width:2;stroke-miterlimit:4;stroke-dasharray:none">NY.PM</tspan></text>
    <path
       sodipodi:type="arc"
       style="fill:#ff6600;fill-opacity:1;stroke:#000000;stroke-width:1.79999995;stroke-linecap:butt;stroke-linejoin:miter;stroke-miterlimit:4;stroke-opacity:1;stroke-dasharray:none;stroke-dashoffset:0"
       id="path3955"
       sodipodi:cx="161"
       sodipodi:cy="149.5"
       sodipodi:rx="13"
       sodipodi:ry="11.5"
       d="m 174,149.5 c 0,6.35127 -5.8203,11.5 -13,11.5 -7.1797,0 -13,-5.14873 -13,-11.5 0,-6.35127 5.8203,-11.5 13,-11.5 7.1797,0 13,5.14873 13,11.5 z"
       transform="translate(-22,358.36216)" />
    <g
       id="g3104"
       transform="matrix(1.599264,0,0,1.599264,-25.145264,456.16574)"
       style="fill:none">
      <path
         id="path3106"
         d="m 273,205 c -8,8 -7,9 -11,18 -4,8 -5,8 -4,15 0,4 2,3 6,7 2,1 3,2 4,3 2,3 1,3 3,5 2,4 3,2 5,6 2,5 2,6 1,12 0,4 -3,6 -3,10 -1,10 -2,18 -2,19 0,8 0,8 -1,16 0,8 -1,8 -3,15 -1,3 -2,2 -3,5 -1,3 0,2 -1,5 -1,2 -2,3 -3,4 0,0 -1,0 -2,0 -2,1 -2,0 -4,1 -2,1 -3,0 -4,2 -2,2 -2,7 -2,7 0,0 -1,-3 -2,-5 0,-1 -1,-2 0,-5 0,-3 1,-3 2,-6 1,-2 3,-4 3,-4 -4,2 -4,3 -9,5 -3,1 -3,1 -6,0 -2,-1 -2,-2 -2,-2 0,0 -3,-1 -5,-1 -3,1 -7,6 -7,6 0,0 0,-5 2,-8 1,-4 1,-4 4,-6 3,-2 4,0 7,-2 5,-3 9,-8 9,-8 0,0 -3,-1 -5,-2 -3,-2 -3,-2 -5,-5 -1,-2 -1,-3 -1,-5 1,-2 3,-4 3,-4 0,0 2,-2 2,-4 1,-2 1,-3 0,-5 -1,-1 -2,-1 -5,-1 -2,0 -2,-1 -4,0 -3,2 -6,5 -6,5 0,0 0,-4 2,-6 3,-5 3,-5 8,-7 4,-2 5,-2 9,-2 4,1 5,2 8,5 2,1 3,11 3,11 0,0 1,-11 3,-16 1,-4 0,-9 0,-9 0,0 -4,2 -8,1 -6,-1 -7,-1 -13,-5 -5,-5 -5,-5 -8,-12 -2,-4 -1,-6 -3,-10 -1,-4 -4,-4 -6,-7 -3,-5 -6,-10 -6,-10 0,0 0,6 0,12 0,5 0,4 0,10 -1,5 -2,6 -2,11 0,6 1,5 3,10 2,6 4,3 5,10 0,3 -2,9 -2,9 0,0 -1,5 -2,11 -1,8 0,9 -1,17 -2,7 -4,14 -4,14 0,0 -1,6 -5,10 -5,5 -5,6 -13,8 -3,1 -3,0 -5,0 -2,1 -2,1 -3,1 -1,1 -2,0 -4,1 -2,1 -2,1 -4,3 -2,1 -5,5 -5,5 0,0 0,-3 1,-7 1,-4 6,-7 6,-7 0,0 -2,0 -4,0 -2,1 -2,1 -4,1 -3,1 -3,0 -6,0 -3,1 -6,5 -6,5 0,0 0,-4 2,-7 2,-3 3,-3 6,-5 3,-1 4,1 6,-1 7,-4 7,-5 13,-10 4,-4 1,-3 0,-6 -1,-2 -1,-2 -1,-4 0,-1 3,-3 1,-3 -4,1 -6,1 -7,4 -2,3 1,9 1,9 0,0 -6,-2 -7,-5 -1,-4 -2,-7 -1,-10 2,-4 4,-8 8,-10 5,-2 9,4 12,2 4,-3 3,-3 4,-8 1,-10 3,-10 1,-20 -3,-9 -5,-9 -10,-18 -3,-7 -3,-7 -5,-14 -2,-7 2,-9 -1,-14 -2,-3 -5,-4 -9,-3 -3,1 -4,3 -5,6 0,5 2,5 3,10 2,6 1,6 2,12 0,4 1,4 1,7 -1,3 -1,3 -2,5 -2,5 0,5 -2,9 -2,4 -5,6 -5,6 0,0 1,-7 0,-15 0,-2 -1,-1 -2,-4 -1,-4 0,-5 -1,-9 -1,-9 -2,-18 -2,-18 0,0 -2,13 -3,27 0,3 1,3 1,6 0,2 -1,2 -2,5 0,5 0,5 0,11 1,5 2,10 2,10 0,0 -3,-2 -5,-5 -2,-4 -3,-4 -5,-9 -1,-3 -1,-3 -1,-7 0,-5 1,-5 1,-10 1,-11 1,-22 1,-22 l -8,15 c 0,0 0,3 -1,5 -2,3 -4,2 -5,4 -2,2 -1,3 0,6 2,3 6,6 6,6 0,0 -6,-1 -10,-4 -3,-3 -3,-4 -4,-9 -1,-2 -1,-3 1,-6 7,-14 8,-13 17,-27 6,-9 9,-18 12,-19 2,-2 24,1 24,-2 -1,-3 -31,-24 -33,-25 -3,-1 -4,6 -7,12 -2,4 0,5 -3,7 -4,2 -6,3 -11,1 -15,-7 -13,-12 -28,-19 -4,-1 -7,0 -9,2 -5,5 -7,13 -5,13 1,1 2,-1 4,0 2,0 4,-1 6,-1 5,-1 8,2 8,2 0,0 -4,0 -7,2 -3,1 -4,2 -5,4 -1,2 -3,1 -4,2 0,0 -1,1 0,2 1,1 2,-1 4,-1 1,0 4,-1 7,-2 4,-2 4,-2 8,-5 2,-2 5,-4 5,-4 0,0 0,4 -2,7 -3,5 -4,6 -7,8 -5,4 -8,3 -8,4 -1,2 -1,1 -2,2 0,1 0,2 1,2 1,-1 4,-1 5,-1 1,1 3,0 5,-1 5,-3 8,-8 8,-8 0,0 -1,8 -5,11 -4,3 -5,3 -6,3 -1,1 -1,1 -2,2 -2,1 -2,1 -5,1 -2,-1 -7,-4 -12,-7 -6,-4 -5,-5 -8,-9 -5,-6 -8,-8 -7,-14 1,-6 4,-14 13,-23 6,-5 10,-8 18,-6 16,3 28,17 30,17 1,-1 8,-21 8,-32 0,-11 -1,-17 -5,-30 -4,-16 -8,-31 -10,-32 -2,-1 -9,-1 -19,-3 -14,-1 -16,-2 -30,-3 -16,-1 -27,1 -32,0 -4,-1 -4,-2 -5,-3 -1,-1 -2,-4 -1,-4 1,0 2,-1 2,-1 l -2,-12 6,11 1,0 -3,-15 6,14 2,0 -2,-16 6,15 3,-1 -2,-11 5,10 3,0 -1,-11 4,10 3,0 -3,-13 6,12 2,-1 -1,-8 5,6 2,-1 -2,-9 6,7 1,0 -1,-8 3,7 2,-1 0,-4 2,4 1,0 0,-8 3,7 2,0 0,-5 3,4 2,0 2,-5 2,4 c 0,0 2,0 7,-1 6,-2 12,-5 12,-5 l -21,-4 -3,5 -1,-6 -2,-1 -3,5 -1,-5 -2,-1 -3,6 -1,-7 -2,0 -2,6 -2,-7 -2,0 -1,9 -2,-10 -1,0 -2,9 -2,-9 -1,0 -1,12 -2,-12 -1,0 -1,9 -1,-9 -2,0 -2,12 -1,-12 -1,0 -2,6 -1,-7 -2,0 -2,10 0,-11 -2,0 -1,9 -1,-9 -1,-1 -2,14 -1,-14 -1,0 -3,12 -1,-13 c 0,0 0,1 -4,-3 -5,-3 -1,-8 1,-12 3,-5 5,-4 11,-5 23,-2 22,0 45,-1 9,-1 10,-4 18,-2 7,1 8,2 14,5 8,3 9,2 16,5 8,3 9,3 16,8 6,4 7,4 11,11 5,9 5,9 7,20 4,19 4,35 4,40 0,5 1,4 5,6 6,3 6,2 13,3 10,1 11,0 21,2 8,2 9,1 16,4 7,3 13,9 13,9 0,0 7,2 14,6 4,2 4,3 8,5 5,1 11,1 11,1 0,0 14,0 29,-2 15,-2 15,-1 31,-4 10,-3 19,-7 19,-7 0,0 9,-5 7,-10 -2,-5 -9,-5 -13,-10 -3,-3 -4,-6 -4,-9 -1,-3 0,-7 4,-11 3,-5 7,-8 16,-8 13,-2 20,-2 28,3 8,5 7,10 7,10 0,0 -6,-6 -14,-7 -10,-1 -14,-2 -21,2 -6,3 -7,6 -5,12 2,5 9,5 12,6 3,2 9,4 11,12 2,8 -4,18 -4,18 0,0 -6,10 -33,23 -28,12 -24,9 -46,21 -12,7 -13,7 -23,16 l 0,0 M 101,37 c 2,0 4,-1 4,-3 0,-2 -2,-3 -4,-3 -3,0 -6,1 -6,3 0,2 3,3 6,3 l 0,0"
         inkscape:connector-curvature="0"
         style="fill:#000000" />
    </g>
  </g>
</svg>
